<svg id="Layer_1" data-name="Layer 1" xmlns="http://www.w3.org/2000/svg" viewBox="0 0 394.84 76.18"><title>logo-sample</title><g id="Layer_2" data-name="Layer 2"><g id="Layer_1-2" data-name="Layer 1-2"><path d="M77.17,73.52l-29-29a9.09,9.09,0,0,1,0-12.85h0l29-29A9.09,9.09,0,0,1,90,2.66h0l29,29a9.09,9.09,0,0,1,0,12.85h0l-29,29a9.09,9.09,0,0,1-12.85,0h0" style="fill:#87b09a"/><path d="M105.8,37.5l-5.33-5.29A.83.83,0,0,0,99,32.8v1.88a.83.83,0,0,1-.83.83H95.29a.83.83,0,0,1-.83-.83V30.81a.83.83,0,0,1,.83-.83h1a.83.83,0,0,0,.59-1.42l-5.33-5.33a.83.83,0,0,0-1.18,0L85,28.56a.83.83,0,0,0,.6,1.43h1.17a.83.83,0,0,1,.83.83h0v3.73a.83.83,0,0,1-.83.83h-6.4a.83.83,0,0,1-.83-.83V30.81a.83.83,0,0,1,.83-.83h1.21a.83.83,0,0,0,.58-1.42l-5.33-5.33a.83.83,0,0,0-1.18,0l-5.33,5.33a.83.83,0,0,0,.6,1.43h.94a.83.83,0,0,1,.83.83h0v3.81a.83.83,0,0,1-.83.83H69a.83.83,0,0,1-.83-.83V32.76a.83.83,0,0,0-1.41-.54l-5.33,5.33a.83.83,0,0,0,0,1.18l5.33,5.33a.83.83,0,0,0,1.42-.59V41.55a.83.83,0,0,1,.83-.83h2.88a.83.83,0,0,1,.83.83v3.81a.83.83,0,0,1-.83.83h-.94a.83.83,0,0,0-.59,1.42l5.33,5.33a.83.83,0,0,0,1.18,0l5.33-5.33a.83.83,0,0,0-.59-1.42H80.38a.83.83,0,0,1-.83-.83V41.6a.83.83,0,0,1,.83-.83h6.4a.83.83,0,0,1,.83.83v3.76a.83.83,0,0,1-.83.83H85.62A.83.83,0,0,0,85,47.61l5.33,5.33a.83.83,0,0,0,1.18,0l5.33-5.33a.83.83,0,0,0-.59-1.42h-1a.83.83,0,0,1-.83-.83V41.55a.83.83,0,0,1,.83-.83h2.92a.83.83,0,0,1,.83.83v1.88a.83.83,0,0,0,1.42.59l5.33-5.33a.83.83,0,0,0,0-1.18" style="fill:#fff"/></g></g></svg>